<svg width="22" height="22" viewBox="0 0 22 22" fill="none" xmlns="http://www.w3.org/2000/svg">
<path d="M17.8752 14.6537C17.2585 13.9401 16.1046 12.8666 16.1046 9.35001C16.1046 6.67907 14.3656 4.54095 12.0208 4.01639V3.30001C12.0208 2.69261 11.5637 2.20001 11 2.20001C10.4363 2.20001 9.97922 2.69261 9.97922 3.30001V4.01639C7.63441 4.54095 5.89543 6.67907 5.89543 9.35001C5.89543 12.8666 4.74154 13.9401 4.12486 14.6537C3.93334 14.8754 3.84843 15.1405 3.85003 15.4C3.85354 15.9638 4.26434 16.5 4.87465 16.5H17.1254C17.7357 16.5 18.1468 15.9638 18.15 15.4C18.1516 15.1405 18.0667 14.8751 17.8752 14.6537ZM6.00555 14.85C6.68289 13.8885 7.42342 12.2949 7.42693 9.36995C7.42693 9.36307 7.42502 9.35689 7.42502 9.35001C7.42502 7.22357 9.02546 5.50001 11 5.50001C12.9745 5.50001 14.575 7.22357 14.575 9.35001C14.575 9.35689 14.5731 9.36307 14.5731 9.36995C14.5766 12.2953 15.3171 13.8889 15.9945 14.85H6.00555ZM11 19.8C12.1274 19.8 13.0419 18.8152 13.0419 17.6H8.95811C8.95811 18.8152 9.87261 19.8 11 19.8Z" fill="#3F434A"/>
<path d="M15.95 8.20001C17.7449 8.20001 19.2 6.74494 19.2 4.95001C19.2 3.15509 17.7449 1.70001 15.95 1.70001C14.1551 1.70001 12.7 3.15509 12.7 4.95001C12.7 6.74494 14.1551 8.20001 15.95 8.20001Z" fill="#FD7972" stroke="white"/>
</svg>
