<svg width="84" height="84" viewBox="0 0 84 84" fill="none" xmlns="http://www.w3.org/2000/svg">
<circle cx="42.0664" cy="41.9333" r="41.4333" fill="white" stroke="#C6C9CC"/>
<path fill-rule="evenodd" clip-rule="evenodd" d="M55.3227 25.3043C54.8797 25.3043 54.4412 25.3915 54.032 25.561C53.6227 25.7305 53.2509 25.979 52.9377 26.2922L49.9366 29.2933L54.7064 34.0632L57.7076 31.062C58.0208 30.7488 58.2692 30.377 58.4387 29.9678C58.6082 29.5586 58.6954 29.12 58.6954 28.6771C58.6954 28.2342 58.6082 27.7956 58.4387 27.3864C58.2692 26.9772 58.0208 26.6054 57.7076 26.2922C57.3944 25.979 57.0226 25.7305 56.6134 25.561C56.2042 25.3915 55.7656 25.3043 55.3227 25.3043ZM51.9929 36.7767L47.2231 32.0068L28.0417 51.1882L26.253 57.7467L32.8116 55.958L51.9929 36.7767ZM52.5634 22.0156C53.4382 21.6533 54.3758 21.4668 55.3227 21.4668C56.2695 21.4668 57.2071 21.6533 58.0819 22.0156C58.9567 22.378 59.7516 22.9091 60.4211 23.5786C61.0906 24.2482 61.6217 25.043 61.9841 25.9178C62.3464 26.7926 62.5329 27.7302 62.5329 28.6771C62.5329 29.6239 62.3464 30.5615 61.9841 31.4363C61.6217 32.3111 61.0906 33.106 60.4211 33.7755L35.1648 59.0318C34.9287 59.2679 34.635 59.4384 34.3129 59.5262L24.0233 62.3325C23.359 62.5136 22.6485 62.325 22.1616 61.8381C21.6748 61.3512 21.4861 60.6408 21.6673 59.9765L24.4735 49.6869C24.5614 49.3647 24.7318 49.0711 24.9679 48.835L50.2242 23.5786C50.8938 22.9091 51.6886 22.378 52.5634 22.0156Z" fill="#3F434A"/>
</svg>
