<svg xmlns="http://www.w3.org/2000/svg" version="1.1" xmlns:xlink="http://www.w3.org/1999/xlink" xmlns:svgjs="http://svgjs.com/svgjs" width="1000" height="1000"><rect width="1000" height="1000" rx="200" ry="200" fill="#555555"></rect><g transform="matrix(30.76923076923077,0,0,30.76923076923077,115.1946249466676,107.0159435203442)"><svg xmlns="http://www.w3.org/2000/svg" version="1.1" xmlns:xlink="http://www.w3.org/1999/xlink" xmlns:svgjs="http://svgjs.com/svgjs" width="25" height="26"><svg width="25" height="26" viewBox="0 0 25 26" fill="none" xmlns="http://www.w3.org/2000/svg">
<path d="M4.13363 15.4844L9.11851 15.522C9.72671 15.5266 10.2451 15.9616 10.3552 16.5598L11.2579 21.4624C11.3543 21.9861 11.0031 22.4888 10.478 22.5788L4.31069 23.6365C3.73079 23.7359 3.20171 23.2919 3.19894 22.7036L3.16957 16.4463C3.16707 15.9135 3.60114 15.4804 4.13363 15.4844Z" fill="#FF965D"></path>
<path d="M10.5065 1.28838L22.484 0.31507C22.9995 0.27318 23.4531 0.64986 23.5067 1.16427L24.7856 13.4585C24.847 14.0488 24.3603 14.5531 23.7685 14.5124L0.812981 12.9345C0.294961 12.8989 0.0377807 12.2904 0.372291 11.8917L8.32158 2.41823C8.87018 1.76442 9.65728 1.35739 10.5065 1.28838Z" fill="white"></path>
<path d="M15.4906 24.9883L22.0301 17.1948C22.3698 16.7899 22.0987 16.1726 21.5717 16.1511L13.6804 15.8289C13.0555 15.8034 12.5737 16.3766 12.7063 16.9878L14.3829 24.7171C14.4948 25.233 15.1505 25.3935 15.4906 24.9883Z" fill="white"></path>
</svg></svg></g></svg>